<svg id="Capa_1" enable-background="new 0 0 511.979 511.979" height="512" viewBox="0 0 511.979 511.979" width="512" xmlns="http://www.w3.org/2000/svg"><g><path d="m427.094 100.326c-.097.217-.172.412-.27.63l51.315 58.078c40.676 66.663 44.687 149.401 12.011 219.22-11.127 23.798-26.505 46.074-46.156 65.725l-.008.008c-6.846 6.846-14.006 13.166-21.444 18.969-76.575 59.84-182.038 64.893-263.509 15.183l-58.7-51.052c-26.04-31.663-42.422-68.59-49.148-106.896-1.297-7.4-2.234-14.846-2.819-22.313-3.449-44.432 5.841-89.651 27.854-129.749 10.332-18.834 23.476-36.522 39.431-52.477l.008-.007c55.648-55.648 132.5-77.122 204.539-64.466 38.298 6.732 75.232 23.107 106.896 49.147z" fill="#fdbf00"/><g fill="#ff9100"><path d="m427.094 100.326c-.097.217-.172.412-.27.63l51.315 58.078c40.676 66.663 44.687 149.401 12.011 219.22-11.127 23.798-26.505 46.074-46.156 65.725l-328.335-328.335c55.648-55.648 132.5-77.122 204.539-64.466 38.298 6.733 75.232 23.108 106.896 49.148z"/><path d="m141.526 187.892c28.199 28.199 28.192 74.078 0 102.27-25.335 25.335-64.931 27.907-93.16 7.715-3.449-44.432 5.841-89.651 27.854-129.749 23.131-4.566 47.874 2.332 65.306 19.764z"/><path d="m219.187 241.813h31.81v31.545h-31.81z" transform="matrix(.707 -.707 .707 .707 -113.284 241.68)"/><path d="m142.12 137.634h31.81v31.545h-31.81z" transform="matrix(.707 -.707 .707 .707 -62.19 156.672)"/></g><path d="m333.804 104.889h31.81v31.545h-31.81z" fill="#ff641a" transform="matrix(.707 -.707 .707 .707 17.107 282.623)"/><path d="m303.632 427.262h31.81v31.545h-31.81z" fill="#ff9100" transform="matrix(.707 -.707 .707 .707 -219.682 355.709)"/><path d="m440.128 284.192h31.81v31.545h-31.81z" fill="#ff641a" transform="matrix(.707 -.707 .707 .707 -78.538 410.322)"/><path d="m127.719 322.678h31.81v31.545h-31.81z" fill="#ff9100" transform="matrix(.707 -.707 .707 .707 -197.254 200.688)"/><path d="m496.718 14.312c25.118 25.118 16.068 79.244-18.58 144.722-29.429 55.611-77.324 119.402-138.506 180.584l-.007.008c-61.174 61.174-124.973 109.078-180.591 138.514-65.478 34.647-119.604 43.697-144.722 18.58-29.084-29.084-12.379-97.059 36.874-176.528 6.726 38.306 23.108 75.233 49.148 106.896 10.549-4.506 22.853-10.542 36.927-18.557 48.421-27.577 102.337-70.007 151.8-119.469l.008-.008c49.47-49.47 91.885-103.372 119.462-151.792 7.865-13.803 13.811-25.897 18.295-36.304.097-.218.173-.412.27-.63-31.663-26.04-68.597-42.415-106.896-49.148 79.459-49.247 147.434-65.952 176.518-36.868z" fill="#ffe15a"/><path d="m490.15 378.253c-11.127 23.798-26.505 46.074-46.156 65.725l-.008.008c-6.846 6.846-14.006 13.166-21.444 18.969-17.597-5.136-32.39-18.4-38.876-36.477-4.934-13.751-4.596-28.514.9-41.928.39-.975.817-1.942 1.267-2.902 6.688-14.156 18.482-24.87 33.222-30.164 14.741-5.278 30.651-4.514 44.814 2.167 11.285 5.333 20.373 13.896 26.281 24.602z" fill="#ff9100"/><path d="m228.219 120.664c-21.462 21.462-21.462 56.382 0 77.843s56.381 21.461 77.843-.001c21.461-21.461 21.461-56.381 0-77.842-21.462-21.46-56.382-21.46-77.843 0z" fill="#ff641a"/><path d="m152.917 133.161h19.16v31.545h-19.16z" fill="#ff641a" transform="matrix(.707 -.707 .707 .707 -57.718 158.525)"/><path d="m490.15 378.253c-11.127 23.798-26.505 46.074-46.156 65.725l-59.427-59.427c.39-.975.817-1.942 1.267-2.902 6.688-14.156 18.482-24.87 33.222-30.164 14.741-5.278 30.651-4.514 44.814 2.167 11.284 5.332 20.372 13.895 26.28 24.601z" fill="#ff641a"/><path d="m496.718 14.312c25.118 25.118 16.068 79.244-18.58 144.722-29.429 55.611-77.324 119.402-138.506 180.584l-50.565-50.565c49.47-49.47 91.885-103.372 119.462-151.792 7.865-13.803 13.811-25.897 18.295-36.304.097-.218.173-.412.27-.63-31.663-26.04-68.597-42.415-106.896-49.148 79.461-49.246 147.436-65.951 176.52-36.867z" fill="#ffb428"/></g></svg>