<svg id="Capa_1" enable-background="new 0 0 510 510" height="512" viewBox="0 0 510 510" width="512" xmlns="http://www.w3.org/2000/svg"><g><g><path d="m255 0c-105.195 0-193.253 63.168-232.512 150l-11.33 180c31.566 103.085 127.97 180 243.842 180l98.481-245.106z" fill="#7ce2f8"/><path d="m480.138 135c-10.667-14.361-44.385-59.872-44.825-60.312-48.164-48.164-112.2-74.688-180.313-74.688v510c83.346 0 158.613-39.764 206.266-105l46.985-180c-3.697-31.746-13.235-62.173-28.113-90z" fill="#47c8e4"/><path d="m315 135h165.138c-11.655-21.799-26.582-42.002-44.521-60h-120.617z" fill="#33a8d9"/><path d="m300 285h75v60h-75v60h161.266c31.638-43.312 48.734-95.34 48.734-150 0-10.104-.598-20.114-1.749-30h-208.251z" fill="#33a8d9"/><path d="m180 270h-75v-60h75v-60h-157.512c-14.725 32.57-22.488 68.186-22.488 105 0 25.8 3.813 51.012 11.158 75h168.842z" fill="#47c8e4"/><g><path d="m165 375h30v30h-30z" fill="#47c8e4"/></g><path d="m240 420v30h15l10-15-10-15z" fill="#47c8e4"/><path d="m255 420h15v30h-15z" fill="#33a8d9"/></g><path d="m240 90v30h15l10-15-10-15z" fill="#47c8e4"/><path d="m255 90h15v30h-15z" fill="#33a8d9"/></g></svg>